<svg width="100" height="100" version="1.1" xmlns="http://www.w3.org/2000/svg" desc="Created with imagetracer.js version 1.2.6" ><path fill="rgb(222,214,232)" stroke="rgb(222,214,232)" stroke-width="1" opacity="1" d="M 28.5 16 L 27.5 18 L 28.5 16 Z " /><path fill="rgb(222,214,232)" stroke="rgb(222,214,232)" stroke-width="1" opacity="1" d="M 44.5 16 L 71.5 16 L 73 17.5 Q 74 22 71.5 23 L 69 22.5 L 72 21.5 L 56.5 21 Q 55 18.5 49.5 20 L 48 18.5 L 48.5 17 Q 43.5 18 44.5 16 Z " /><path fill="rgb(222,214,232)" stroke="rgb(222,214,232)" stroke-width="1" opacity="1" d="M 27.5 21 L 28.5 23 L 27.5 21 Z " /><path fill="rgb(222,214,232)" stroke="rgb(222,214,232)" stroke-width="1" opacity="1" d="M 46.5 29 L 54.5 29 L 61.5 33 L 69 33 L 69 56.5 Q 68.9 57.6 63.5 57 L 56.5 62 L 49.5 63 L 45 62 L 45 57 L 53.5 57 L 60 53.5 L 62 47.5 L 58.5 41 L 55 39.5 Q 57.8 38.4 57 35 L 49.5 36 L 45 35 Q 43.8 30.4 46.5 29 Z " /><path fill="rgb(222,214,232)" stroke="rgb(222,214,232)" stroke-width="1" opacity="1" d="M 51.5 69 L 71.5 69 L 73 70.5 L 74 72.5 L 73 75 L 52.5 75 L 47 71.5 L 51.5 69 Z " /><path fill="rgb(205,60,95)" stroke="rgb(205,60,95)" stroke-width="1" opacity="1" d="M 31 23 L 67.5 23 L 68 23.5 L 68 33 L 62.5 33 L 55.5 29 L 44.5 29 L 38.5 33 L 31 33 L 31 23 Z " /><path fill="rgb(205,60,95)" stroke="rgb(205,60,95)" stroke-width="1" opacity="1" d="M 43.5 40 L 55.5 40 L 60 43.5 L 61 50.5 L 57.5 55 L 55.5 56 L 43.5 56 L 40 54 L 38 46.5 L 40 42 L 43.5 40 Z " /><path fill="rgb(205,60,95)" stroke="rgb(205,60,95)" stroke-width="1" opacity="1" d="M 31 57 L 36.5 57 Q 39.9 61.6 46.5 63 L 54.5 63 L 64.5 57 L 68 57 L 68 68.5 L 67.5 69 L 31 69 L 31 57 Z " /><path fill="rgb(254,254,254)" stroke="rgb(254,254,254)" stroke-width="1" opacity="1" d="M 30.5 23 L 31 68.5 L 30 68.5 L 30.5 23 Z " /><path fill="rgb(255,255,255)" stroke="rgb(255,255,255)" stroke-width="1" opacity="1" d="M 0 0 L 100 0 L 100 100 L 0 100 L 0 0 Z M 29 16 L 28 17 Q 25 16 26 21 L 30 23 L 30 69 L 27 69 L 26 74 L 28 75 L 73 75 L 74 72 Q 73 68 69 69 L 69 24 L 72 23 L 73 21 L 74 18 L 72 16 L 29 16 Z " /><path fill="rgb(194,140,174)" stroke="rgb(194,140,174)" stroke-width="1" opacity="1" d="M 29.5 16 Q 41.5 14.5 49 17.5 Q 46.8 18.8 49.5 20 L 72 21.5 L 69 22 L 68.5 33 L 68 23 L 29.5 23 L 27 20.5 Q 26.5 16.5 29.5 16 Z " /><path fill="rgb(194,140,174)" stroke="rgb(194,140,174)" stroke-width="1" opacity="1" d="M 44.5 29 L 46 29.5 L 45 35 L 51.5 36 L 57 35 Q 57.8 38.8 54.5 40 Q 43.7 38.2 40 42 L 38 48.5 L 40 54 L 43.5 56 L 54 56.5 L 45 57 L 45 62 L 43.5 62 L 36.5 57 L 31 57 L 31 33.5 L 31.5 33 L 38.5 33 L 44.5 29 Z " /><path fill="rgb(194,140,174)" stroke="rgb(194,140,174)" stroke-width="1" opacity="1" d="M 58.5 41 L 59.5 43 L 58.5 41 Z " /><path fill="rgb(194,140,174)" stroke="rgb(194,140,174)" stroke-width="1" opacity="1" d="M 59.5 53 L 58.5 55 L 59.5 53 Z " /><path fill="rgb(194,140,174)" stroke="rgb(194,140,174)" stroke-width="1" opacity="1" d="M 63.5 57 L 62.5 59 L 63.5 57 Z " /><path fill="rgb(194,140,174)" stroke="rgb(194,140,174)" stroke-width="1" opacity="1" d="M 68.5 57 L 69 68.5 L 68 68.5 L 68.5 57 Z " /><path fill="rgb(194,140,174)" stroke="rgb(194,140,174)" stroke-width="1" opacity="1" d="M 46.5 62 L 49 62.5 L 46.5 63 L 46.5 62 Z " /><path fill="rgb(194,140,174)" stroke="rgb(194,140,174)" stroke-width="1" opacity="1" d="M 52.5 62 L 55 62.5 L 52.5 63 L 52.5 62 Z " /><path fill="rgb(194,140,174)" stroke="rgb(194,140,174)" stroke-width="1" opacity="1" d="M 29.5 69 L 51 69.5 L 47 71.5 L 52 74.5 L 28.5 75 Q 26 73.8 27 70 L 29.5 69 Z " /></svg>